<svg width="268" height="121" viewBox="0 0 268 121" fill="none" xmlns="http://www.w3.org/2000/svg">
<path d="M256.716 0H67.3581C61.1255 0 56.0737 5.34935 56.0737 11.9391V42.4653C56.0737 49.0551 51.0218 54.4045 44.7892 54.4045H11.2844C5.05186 54.4045 0 59.7538 0 66.3436V109.022C0 115.612 5.05186 120.961 11.2844 120.961H50.2476C56.4801 120.961 61.532 115.612 61.532 109.022V75.0266C61.532 68.4368 66.5838 63.0875 72.8164 63.0875H256.716C262.948 63.0875 268 57.7381 268 51.1483V11.9391C268 5.34935 262.948 0 256.716 0Z" fill="#E61453"/>
</svg>
