<svg width="59" height="59" viewBox="0 0 59 59" fill="none" xmlns="http://www.w3.org/2000/svg">
<path d="M9.83334 27.0417L9.83334 31.9584L39.3333 31.9584L39.3333 36.8751L44.25 36.8751L44.25 31.9584L49.1667 31.9584L49.1667 27.0417L44.25 27.0417L44.25 22.1251L39.3333 22.1251L39.3333 27.0417L9.83334 27.0417ZM34.4167 17.2084L39.3333 17.2084L39.3333 22.1251L34.4167 22.1251L34.4167 17.2084ZM34.4167 17.2084L29.5 17.2084L29.5 12.2917L34.4167 12.2917L34.4167 17.2084ZM34.4167 41.7918L39.3333 41.7918L39.3333 36.8751L34.4167 36.8751L34.4167 41.7918ZM34.4167 41.7918L29.5 41.7918L29.5 46.7084L34.4167 46.7084L34.4167 41.7918Z" fill="#5269BC"/>
</svg>
