<svg width="451" height="982" viewBox="0 0 451 982" fill="none" xmlns="http://www.w3.org/2000/svg">
<g filter="url(#filter0_d_1042_74)">
<path d="M390.923 702.662L448.83 702.951C478.8 703.112 503.229 679.339 503.36 649.879L505 324.185C505.131 294.725 480.964 270.727 450.994 270.567L398.071 270.31C368.101 270.149 343.902 246.151 344.066 216.691C344.197 187.231 368.626 163.458 398.596 163.619L449.847 163.876C479.817 164.036 504.245 140.263 504.377 110.804L504.672 53.9083C504.803 24.4487 480.637 0.450621 450.666 0.289973L392.759 0.000845138C362.789 -0.159802 338.361 23.6135 338.229 53.073L338.065 86.0023C337.934 115.462 313.506 139.235 283.536 139.075L232.285 138.818C202.315 138.657 177.886 162.43 177.755 191.89L177.46 248.785C177.329 278.245 201.495 302.243 231.465 302.403L284.388 302.661C314.358 302.821 338.557 326.819 338.393 356.279L336.951 644.193C336.819 673.652 312.391 697.426 282.421 697.265L224.513 696.976C194.543 696.815 170.344 672.817 170.508 643.358L171.295 483.916C171.426 454.456 147.26 430.458 117.29 430.297L59.3829 430.008C29.4128 429.848 4.98421 453.621 4.85304 483.081L4.00049 653.092C3.86932 682.551 28.0355 706.55 58.0056 706.71L115.913 706.999C145.883 707.16 170.082 731.158 169.918 760.618L169.131 920.059C169 949.519 193.166 973.517 223.136 973.678L281.011 973.999C310.981 974.16 335.409 950.387 335.541 920.927L336.36 755.735C336.491 726.275 360.92 702.502 390.89 702.662L390.923 702.662Z" fill="#CEDC29"/>
</g>
<defs>
<filter id="filter0_d_1042_74" x="0" y="0" width="509" height="982" filterUnits="userSpaceOnUse" color-interpolation-filters="sRGB">
<feFlood flood-opacity="0" result="BackgroundImageFix"/>
<feColorMatrix in="SourceAlpha" type="matrix" values="0 0 0 0 0 0 0 0 0 0 0 0 0 0 0 0 0 0 127 0" result="hardAlpha"/>
<feOffset dy="4"/>
<feGaussianBlur stdDeviation="2"/>
<feComposite in2="hardAlpha" operator="out"/>
<feColorMatrix type="matrix" values="0 0 0 0 0 0 0 0 0 0 0 0 0 0 0 0 0 0 0.25 0"/>
<feBlend mode="normal" in2="BackgroundImageFix" result="effect1_dropShadow_1042_74"/>
<feBlend mode="normal" in="SourceGraphic" in2="effect1_dropShadow_1042_74" result="shape"/>
</filter>
</defs>
</svg>
