<svg width="319" height="553" viewBox="0 0 319 553" fill="none" xmlns="http://www.w3.org/2000/svg">
<path d="M295.895 445.24H101.426C88.6542 445.24 78.2797 455.544 78.2797 468.228V529.189C78.2797 541.874 67.9053 552.178 55.1336 552.178H-27.7794C-40.5511 552.178 -50.9255 541.874 -50.9255 529.189V425.453C-50.9255 412.768 -40.5511 402.465 -27.7794 402.465H19.877C32.6487 402.465 43.0232 392.161 43.0232 379.476V334.073C43.0232 321.389 32.6487 311.085 19.877 311.085H-162.854C-175.626 311.085 -186 300.781 -186 288.096V155.214C-186 142.529 -175.626 132.225 -162.854 132.225H-81.9249C-69.1531 132.225 -58.7787 121.922 -58.7787 109.237V22.9886C-58.7787 10.3038 -48.4042 0 -35.6325 0H43.3538C56.1256 0 66.5 10.3038 66.5 22.9886V109.196C66.5 121.881 76.8745 132.184 89.6462 132.184H119.695C132.467 132.184 142.841 142.488 142.841 155.173V280.297C142.841 292.981 153.216 303.285 165.987 303.285H295.854C308.626 303.285 319 313.589 319 326.274V422.21C319 434.895 308.626 445.199 295.854 445.199L295.895 445.24Z" fill="#CDDB28"/>
</svg>
