<?xml version="1.0" encoding="UTF-8"?>
<svg id="Layer_2" data-name="Layer 2" xmlns="http://www.w3.org/2000/svg" xmlns:xlink="http://www.w3.org/1999/xlink" viewBox="0 0 396.79 617.43">
  <defs>
    <style>
      .cls-1 {
        fill: none;
      }

      .cls-2 {
        fill: #cedc29;
      }

      .cls-3 {
        clip-path: url(#clippath);
      }
    </style>
    <clipPath id="clippath">
      <rect class="cls-1" width="396.79" height="617.43"/>
    </clipPath>
  </defs>
  <g id="Layer_1-2" data-name="Layer 1">
    <g class="cls-3">
      <g id="s5Zcks">
        <path class="cls-2" d="M280.92,612.81l-105.44.95c-26.56-4.69-16.07-41.46-18.9-63.06-1.28-9.8-10.13-17.95-18-19.18-17.26-2.71-46.9,9.29-50.55-21.55-1.05-8.92-1.27-39.55,1.2-47.16,9.93-30.52,44.66-5.22,60.41-22.43,14.54-15.89-2.19-52.14,12.66-68.93,14.84-16.78,52.42,5.84,60.98-23.63,2.57-8.83,2.28-43.06-.99-51.54-2.38-6.17-9.13-12.82-14.79-13.52-7.93-.98-25.09-.74-33.13.18-4.23.48-8.76,3.22-11.74,6.78-15.58,18.56,8.28,72.42-26.34,76.23-31.42,3.45-66.7-2.06-98.52.59-9.92-1.24-18.28-9.99-19.45-22.19-.81-8.42-1.12-34.57-.05-42.55,1.24-9.25,9.61-18.97,17.4-19.86,31.7-3.61,68.51,3.42,100.01-.73,8.13-1.07,17.58-8.5,19.11-18.77,1.01-6.75.73-35.31-.12-42.46-1.37-11.44-10.43-19.2-19.45-20.27-19.13-2.27-47.06,9.63-49.33-24.94-2.5-38.08,1.35-79.48-.67-117.92.72-11.77,7.7-22.6,17.69-24.24,7.35-1.21,27.04-1.2,34.52-.2,8.84,1.17,16.58,9.46,17.93,20.21,2.05,38.65-1.98,80.58.65,118.83.77,11.28,5.88,23.34,15.9,25.56,5.75,1.27,32.26,1.09,37.5-.71,24.69-8.49,8.24-50.95,16.48-69.09,12.2-26.87,47.87-.2,61.69-22.79,12.83-20.96-9.63-67.98,23.26-73.28l169.49-1.11c33.61,5.42,9.58,57.41,25.59,75.94,15.83,18.33,59.82-11.79,62.89,31.35.69,9.64,1.14,37.17-1.74,45.19-7.74,21.6-31.63,12.64-47.1,14.68-40.29,5.31,2.4,79.44-40.57,83.81-31.88,3.25-67.09-1.91-99.32.61-8.92,1.27-15.99,12.01-16.8,22.46-.73,9.4-.67,36.96,2.47,44.81,9.82,24.57,40.58,6.52,55.95,15.9,4.39,2.68,9.75,10.93,10.53,16.82.97,7.42,1.02,39.82-.24,46.79-5.35,29.74-40.34,12.52-56.07,20.99-21.96,11.83-4.46,51.35-15.01,69.89-12.76,22.42-43.21.67-58.19,17.52-17.21,19.37,7.53,64.73-21.8,75.97ZM357.08,372.42c-2.98-4-9-7.58-13.53-7.88-31.84,2.76-67.13-2.82-98.56.65-28.63,3.16-13.78,45.67-19.51,66.42-9.66,34.97-57.34-1.98-66.41,34.15-2.23,8.88-2.03,38.13.47,46.89,2.55,8.94,8.53,14.86,16.28,16.49,32.21-2.87,68.37,3.08,100.12-.61,30.33-3.53,11.25-53.2,21.36-71.77,10.07-18.5,33.18-8.5,48.7-11.83,8.03-1.73,15.52-11.22,16.39-21.06.77-8.72.53-28.22-.18-37.1-.35-4.36-2.7-11.09-5.12-14.33ZM342.02,279.74c28.45-4.32,16.42-40.02,19.52-62.64,1.8-13.17,10.67-19.96,21.17-21.03,31.64-3.21,66.55,1.88,98.53-.6,7.68-1.08,15.95-10.19,16.85-19.57.79-8.27.64-33.58-.33-41.75-1.47-12.39-11.38-18.74-20.89-19.47-52.89-4.06-109.86,4.13-163.19,1.07-37.65,5.15-5.29,63.14-30.22,80.09-14.65,9.97-54.78-9.73-57.81,24.58-.67,7.6-.65,34.43.59,41.4,1.76,9.87,10.25,17.59,18.37,18.73,30.81-3,67.26,3.79,97.41-.79Z"/>
      </g>
    </g>
  </g>
</svg>