<svg width="245" height="69" viewBox="0 0 245 69" fill="none" xmlns="http://www.w3.org/2000/svg">
<path d="M0.88 47.32H19.76C19.9733 48.7067 20.64 49.9333 21.76 51C22.9333 52.0133 24.5067 52.8133 26.48 53.4C28.4533 53.9333 30.7733 54.2 33.44 54.2C37.12 54.2 39.9733 53.7733 42 52.92C44.08 52.0667 45.12 50.76 45.12 49C45.12 47.7733 44.5333 46.7867 43.36 46.04C42.1867 45.24 39.8667 44.7067 36.4 44.44L25.84 43.56C17.2 42.92 10.9333 41.0533 7.04 37.96C3.2 34.8133 1.28 30.6 1.28 25.32C1.28 21 2.53333 17.4 5.04 14.52C7.54667 11.5867 11.04 9.37333 15.52 7.88C20 6.38667 25.28 5.64 31.36 5.64C37.2267 5.64 42.4267 6.46666 46.96 8.12C51.5467 9.77333 55.1733 12.12 57.84 15.16C60.56 18.1467 62.0533 21.64 62.32 25.64H43.44C43.2267 24.4667 42.6133 23.4533 41.6 22.6C40.64 21.6933 39.2533 21 37.44 20.52C35.6267 20.04 33.4667 19.8 30.96 19.8C27.6533 19.8 25.0133 20.2 23.04 21C21.12 21.8 20.16 23 20.16 24.6C20.16 25.7733 20.72 26.7333 21.84 27.48C23.0133 28.2267 25.1467 28.7333 28.24 29L39.84 29.96C45.6 30.3867 50.24 31.2933 53.76 32.68C57.3333 34.0133 59.92 35.8533 61.52 38.2C63.12 40.4933 63.92 43.4 63.92 46.92C63.92 51.1867 62.64 54.9467 60.08 58.2C57.52 61.4 53.92 63.9067 49.28 65.72C44.6933 67.48 39.3067 68.36 33.12 68.36C26.7733 68.36 21.2 67.48 16.4 65.72C11.6 63.96 7.84 61.5067 5.12 58.36C2.4 55.16 0.986667 51.48 0.88 47.32ZM70.3631 5.4H88.6831V67H70.3631V5.4ZM105.083 19.8C109.51 19.8 113.27 20.68 116.363 22.44C119.51 24.2 121.91 26.7067 123.563 29.96C125.216 33.16 126.043 36.92 126.043 41.24V67H107.723V43.88C107.723 40.8933 106.923 38.6 105.323 37C103.776 35.4 101.536 34.6 98.6031 34.6C96.5765 34.6 94.8165 35.0267 93.3231 35.88C91.8298 36.7333 90.6831 37.9333 89.8831 39.48C89.0831 41.0267 88.6831 42.8933 88.6831 45.08L83.1631 42.2C83.8565 37.24 85.2431 33.1067 87.3231 29.8C89.4565 26.4933 92.0431 24.0133 95.0831 22.36C98.1231 20.6533 101.456 19.8 105.083 19.8ZM133.801 20.28L143.001 22.2L152.121 20.28V67H133.801V20.28ZM143.001 17.24C139.907 17.24 137.401 16.4667 135.481 14.92C133.561 13.3733 132.601 11.2933 132.601 8.68C132.601 6.01333 133.561 3.90666 135.481 2.36C137.401 0.813332 139.907 0.039999 143.001 0.039999C146.201 0.039999 148.734 0.813332 150.601 2.36C152.521 3.90666 153.481 6.01333 153.481 8.68C153.481 11.2933 152.521 13.3733 150.601 14.92C148.734 16.4667 146.201 17.24 143.001 17.24ZM194.039 16.84C191.106 16.84 188.999 17.2667 187.719 18.12C186.493 18.9733 185.879 20.36 185.879 22.28V67H167.559V25.32C167.559 20.68 168.493 16.7867 170.359 13.64C172.226 10.4933 174.946 8.12 178.519 6.52C182.146 4.86666 186.573 4.04 191.799 4.04C193.879 4.04 195.746 4.2 197.399 4.52C199.053 4.78666 200.759 5.21333 202.519 5.8V17.72C201.186 17.4 199.826 17.1867 198.439 17.08C197.053 16.92 195.586 16.84 194.039 16.84ZM158.439 37.64V23.56H201.719V37.64H158.439ZM197.319 37.64V23.56H206.839L214.519 9H224.839V22.84H243.479V36.92H224.839V45.48C224.839 48.5733 225.453 50.76 226.679 52.04C227.906 53.32 230.279 53.96 233.799 53.96C235.986 53.96 237.933 53.8 239.639 53.48C241.346 53.1067 242.893 52.6533 244.279 52.12V65.96C242.519 66.4933 240.333 67 237.719 67.48C235.106 67.96 232.386 68.2 229.559 68.2C224.333 68.2 220.013 67.4 216.599 65.8C213.186 64.2 210.653 61.9067 208.999 58.92C207.346 55.9333 206.519 52.3867 206.519 48.28V37.64H197.319Z" fill="black"/>
</svg>
