<?xml version="1.0" encoding="UTF-8"?>
<svg id="Layer_1" data-name="Layer 1" xmlns="http://www.w3.org/2000/svg" viewBox="0 0 243.4 68.32">
  <defs>
    <style>
      .cls-1 {
        fill: #fff;
      }
    </style>
  </defs>
  <path class="cls-1" d="M0,47.28h18.88c.21,1.39.88,2.61,2,3.68,1.17,1.01,2.75,1.81,4.72,2.4,1.97.53,4.29.8,6.96.8,3.68,0,6.53-.43,8.56-1.28,2.08-.85,3.12-2.16,3.12-3.92,0-1.23-.59-2.21-1.76-2.96-1.17-.8-3.49-1.33-6.96-1.6l-10.56-.88c-8.64-.64-14.91-2.51-18.8-5.6C2.32,34.77.4,30.56.4,25.28c0-4.32,1.25-7.92,3.76-10.8,2.51-2.93,6-5.15,10.48-6.64,4.48-1.49,9.76-2.24,15.84-2.24s11.07.83,15.6,2.48c4.59,1.65,8.21,4,10.88,7.04,2.72,2.99,4.21,6.48,4.48,10.48h-18.88c-.21-1.17-.83-2.19-1.84-3.04-.96-.91-2.35-1.6-4.16-2.08-1.81-.48-3.97-.72-6.48-.72-3.31,0-5.95.4-7.92,1.2-1.92.8-2.88,2-2.88,3.6,0,1.17.56,2.13,1.68,2.88,1.17.75,3.31,1.25,6.4,1.52l11.6.96c5.76.43,10.4,1.33,13.92,2.72,3.57,1.33,6.16,3.17,7.76,5.52,1.6,2.29,2.4,5.2,2.4,8.72,0,4.27-1.28,8.03-3.84,11.28-2.56,3.2-6.16,5.71-10.8,7.52-4.59,1.76-9.97,2.64-16.16,2.64s-11.92-.88-16.72-2.64c-4.8-1.76-8.56-4.21-11.28-7.36C1.52,55.12.11,51.44,0,47.28ZM69.48,5.36h18.32v61.6h-18.32V5.36ZM104.2,19.76c4.43,0,8.19.88,11.28,2.64,3.15,1.76,5.55,4.27,7.2,7.52,1.65,3.2,2.48,6.96,2.48,11.28v25.76h-18.32v-23.12c0-2.99-.8-5.28-2.4-6.88-1.55-1.6-3.79-2.4-6.72-2.4-2.03,0-3.79.43-5.28,1.28-1.49.85-2.64,2.05-3.44,3.6-.8,1.55-1.2,3.41-1.2,5.6l-5.52-2.88c.69-4.96,2.08-9.09,4.16-12.4,2.13-3.31,4.72-5.79,7.76-7.44,3.04-1.71,6.37-2.56,10-2.56ZM132.92,20.24l9.2,1.92,9.12-1.92v46.72h-18.32V20.24ZM142.12,17.2c-3.09,0-5.6-.77-7.52-2.32-1.92-1.55-2.88-3.63-2.88-6.24s.96-4.77,2.88-6.32c1.92-1.55,4.43-2.32,7.52-2.32s5.73.77,7.6,2.32c1.92,1.55,2.88,3.65,2.88,6.32s-.96,4.69-2.88,6.24c-1.87,1.55-4.4,2.32-7.6,2.32ZM193.16,16.8c-2.93,0-5.04.43-6.32,1.28-1.23.85-1.84,2.24-1.84,4.16v44.72h-18.32V25.28c0-4.64.93-8.53,2.8-11.68,1.87-3.15,4.59-5.52,8.16-7.12,3.63-1.65,8.05-2.48,13.28-2.48,2.08,0,3.95.16,5.6.48,1.65.27,3.36.69,5.12,1.28v11.92c-1.33-.32-2.69-.53-4.08-.64-1.39-.16-2.85-.24-4.4-.24ZM157.56,37.6v-14.08h43.28v14.08h-43.28ZM196.44,37.6v-14.08h9.52l7.68-14.56h10.32v13.84h18.64v14.08h-18.64v8.56c0,3.09.61,5.28,1.84,6.56,1.23,1.28,3.6,1.92,7.12,1.92,2.19,0,4.13-.16,5.84-.48,1.71-.37,3.25-.83,4.64-1.36v13.84c-1.76.53-3.95,1.04-6.56,1.52-2.61.48-5.33.72-8.16.72-5.23,0-9.55-.8-12.96-2.4-3.41-1.6-5.95-3.89-7.6-6.88-1.65-2.99-2.48-6.53-2.48-10.64v-10.64h-9.2Z"/>
</svg>