<?xml version="1.0" encoding="UTF-8"?>
<svg id="Layer_2" data-name="Layer 2" xmlns="http://www.w3.org/2000/svg" xmlns:xlink="http://www.w3.org/1999/xlink" viewBox="0 0 571.41 729.24">
  <defs>
    <style>
      .cls-1 {
        fill: none;
      }

      .cls-2 {
        fill: #f1582a;
      }

      .cls-3 {
        clip-path: url(#clippath);
      }
    </style>
    <clipPath id="clippath">
      <rect class="cls-1" x="176.21" y="112.37" width="395.2" height="616.87"/>
    </clipPath>
  </defs>
  <g id="Layer_1-2" data-name="Layer 1">
    <g class="cls-3">
      <g id="s5Zcks">
        <path class="cls-2" d="M456,724.62l-105.01.95c-26.45-4.68-16-41.42-18.82-63-1.28-9.79-10.09-17.93-17.92-19.16-17.19-2.7-46.71,9.28-50.34-21.53-1.05-8.91-1.27-39.51,1.2-47.11,9.89-30.5,44.48-5.21,60.16-22.41,14.48-15.88-2.18-52.1,12.6-68.86,14.78-16.76,52.21,5.84,60.74-23.61,2.56-8.82,2.27-43.02-.99-51.49-2.37-6.17-9.1-12.81-14.73-13.51-7.9-.98-24.99-.74-33,.18-4.22.48-8.72,3.22-11.7,6.77-15.51,18.55,8.24,72.35-26.23,76.16-31.29,3.45-66.43-2.06-98.13.59-9.88-1.24-18.21-9.98-19.37-22.17-.8-8.42-1.12-34.54-.05-42.51,1.24-9.24,9.58-18.96,17.33-19.84,31.58-3.61,68.24,3.42,99.61-.73,8.1-1.07,17.51-8.5,19.03-18.75,1-6.75.73-35.28-.12-42.42-1.36-11.43-10.39-19.19-19.37-20.25-19.06-2.27-46.87,9.62-49.14-24.92-2.49-38.05,1.34-79.41-.67-117.81.72-11.76,7.67-22.58,17.62-24.21,7.32-1.21,26.93-1.2,34.38-.2,8.8,1.17,16.52,9.45,17.86,20.19,2.04,38.61-1.97,80.5.65,118.72.77,11.27,5.86,23.32,15.84,25.54,5.73,1.27,32.13,1.09,37.35-.71,24.59-8.49,8.21-50.9,16.41-69.03,12.15-26.85,47.67-.2,61.44-22.77,12.78-20.94-9.59-67.92,23.17-73.21l168.81-1.11c33.48,5.42,9.54,57.36,25.48,75.87,15.76,18.31,59.58-11.77,62.64,31.33.68,9.64,1.13,37.13-1.73,45.15-7.71,21.58-31.51,12.63-46.91,14.66-40.13,5.3,2.39,79.37-40.4,83.74-31.75,3.24-66.82-1.9-98.92.61-8.89,1.27-15.92,12-16.74,22.44-.73,9.39-.66,36.93,2.46,44.77,9.79,24.55,40.42,6.51,55.73,15.89,4.37,2.68,9.71,10.92,10.48,16.8.97,7.42,1.01,39.78-.24,46.75-5.33,29.71-40.18,12.51-55.84,20.97-21.87,11.82-4.44,51.31-14.95,69.83-12.71,22.4-43.04.67-57.95,17.5-17.14,19.35,7.5,64.68-21.71,75.9ZM531.85,484.45c-2.97-4-8.97-7.57-13.48-7.88-31.72,2.75-66.86-2.82-98.17.65-28.52,3.16-13.72,45.63-19.43,66.36-9.62,34.94-57.11-1.98-66.14,34.12-2.22,8.87-2.02,38.1.47,46.84,2.54,8.93,8.5,14.84,16.21,16.48,32.08-2.86,68.09,3.08,99.71-.61,30.21-3.53,11.2-53.15,21.27-71.71,10.03-18.49,33.05-8.49,48.51-11.82,8-1.72,15.46-11.21,16.32-21.04.77-8.71.53-28.19-.18-37.07-.35-4.36-2.69-11.08-5.09-14.32ZM516.85,391.86c28.34-4.32,16.35-39.99,19.44-62.58,1.8-13.16,10.62-19.95,21.09-21.01,31.51-3.21,66.28,1.88,98.14-.6,7.65-1.08,15.88-10.18,16.78-19.55.79-8.26.64-33.55-.33-41.72-1.46-12.38-11.33-18.73-20.81-19.46-52.68-4.05-109.42,4.12-162.53,1.07-37.5,5.14-5.27,63.08-30.1,80.02-14.59,9.96-54.56-9.72-57.58,24.55-.67,7.59-.65,34.4.59,41.36,1.75,9.86,10.21,17.57,18.29,18.71,30.68-3,66.99,3.79,97.02-.79Z"/>
      </g>
    </g>
    <path class="cls-2" d="M34.79,84.46l-17.66-.09c-9.14-.05-16.59,7.35-16.63,16.52L0,202.27c-.04,9.17,7.33,16.64,16.47,16.69l16.14.08c9.14.05,16.52,7.52,16.47,16.69h0c-.04,9.17-7.49,16.57-16.63,16.52l-15.63-.08c-9.14-.05-16.59,7.35-16.63,16.52l-.09,17.71c-.04,9.17,7.33,16.64,16.47,16.69l17.66.09c9.14.05,16.59-7.35,16.63-16.52l.05-10.25c.04-9.17,7.49-16.57,16.63-16.52l15.63.08c9.14.05,16.59-7.35,16.63-16.52l.09-17.71c.04-9.17-7.33-16.64-16.47-16.69l-16.14-.08c-9.14-.05-16.52-7.52-16.47-16.69l.44-89.62c.04-9.17,7.49-16.57,16.63-16.52l17.66.09c9.14.05,16.52,7.52,16.47,16.69l-.24,49.63c-.04,9.17,7.33,16.64,16.47,16.69l17.66.09c9.14.05,16.59-7.35,16.63-16.52l.26-52.92c.04-9.17-7.33-16.64-16.47-16.69l-17.66-.09c-9.14-.05-16.52-7.52-16.47-16.69l.24-49.63c.04-9.17-7.33-16.64-16.47-16.69L68.31,0c-9.14-.05-16.59,7.35-16.63,16.52l-.25,51.42c-.04,9.17-7.49,16.57-16.63,16.52Z"/>
  </g>
</svg>