<svg width="209" height="61" viewBox="0 0 209 61" fill="none" xmlns="http://www.w3.org/2000/svg">
<path d="M27.24 5.68H29.16C44.84 5.68 55.16 11.36 55.16 22.88V25.68H44.6V22.88C44.6 16.64 38.44 14.08 29.08 14.08H27.24C17.72 14.08 11.8 16.56 11.8 20.72V21.6C11.8 26.24 16.36 27.28 32.12 29.12C49.24 31.28 56.28 35.52 56.28 44.56V45.52C56.28 54.72 46.92 60.72 29.4 60.72H27.56C9.56 60.72 0.28 54.64 0.28 43.04V40.16H10.84V43.04C10.84 50 16.84 52.24 27.56 52.24H29.48C39.64 52.24 45.56 50.08 45.56 45.68V44.72C45.56 40.32 40.6 38.72 25.24 36.96C9.4 35.2 1.08 31.52 1.08 22.08V21.12C1.08 11.36 11.16 5.68 27.24 5.68ZM64.22 0.799999H74.86V25.52H76.78C79.58 21.44 84.78 18.72 92.3 18.72H93.82C105.42 18.72 111.74 24.88 111.74 36.96V60H101.1V38.56C101.1 31.44 97.18 27.36 88.86 27.36H87.34C79.34 27.36 74.86 31.52 74.86 38.56V60H64.22V0.799999ZM120.783 19.44H131.423V60H120.783V19.44ZM125.663 2.32H126.622C129.743 2.32 132.223 4.48 132.223 7.28C132.223 10.24 129.743 12.32 126.622 12.32H125.663C122.543 12.32 120.063 10.24 120.063 7.28C120.063 4.48 122.543 2.32 125.663 2.32ZM162.781 0.079999H164.141C174.861 0.079999 182.781 4.48 182.781 15.28V19.44H207.421V27.12H182.781V44.8C182.781 49.76 184.941 52.72 190.461 52.72H192.141C197.501 52.72 199.501 49.76 199.501 44.8V42.88H208.941V44.8C208.941 56.16 202.301 60.72 192.141 60.72H190.381C179.821 60.72 172.141 56.16 172.141 44.88V27.12H154.781V60H144.061V27.12H137.261V19.44H144.061V15.28C144.061 4.48 152.061 0.079999 162.781 0.079999ZM162.781 7.92C156.941 7.92 154.781 10.72 154.781 15.28V19.44H172.141V15.28C172.141 10.72 169.901 7.92 164.061 7.92H162.781Z" fill="black"/>
</svg>
