<svg width="939" height="379" viewBox="0 0 939 379" fill="none" xmlns="http://www.w3.org/2000/svg">
<path d="M899.423 0H235.992C214.143 0 196.415 16.7793 196.415 37.3997V133.021C196.415 153.692 178.688 170.421 156.839 170.421H39.5767C17.7276 170.421 0 187.2 0 207.821V341.499C0 362.17 17.7276 378.899 39.5767 378.899H176.034C197.883 378.899 215.611 362.12 215.611 341.499V235.011C215.611 214.34 233.339 197.612 255.188 197.612H899.48C921.329 197.612 939.056 180.832 939.056 160.212V37.3997C939.056 16.7288 921.329 0 899.48 0H899.423Z" fill="#EF4478"/>
</svg>
