<?xml version="1.0" encoding="UTF-8"?>
<svg id="Layer_1" xmlns="http://www.w3.org/2000/svg" version="1.1" xmlns:xlink="http://www.w3.org/1999/xlink" viewBox="0 0 800 800">
  <!-- Generator: Adobe Illustrator 29.3.1, SVG Export Plug-In . SVG Version: 2.1.0 Build 151)  -->
  <defs>
    <style>
      .st0 {
        fill: #fff;
        fill-rule: evenodd;
      }
    </style>
  </defs>
  <g id="Page-1">
    <g id="Dribbble-Light-Preview">
      <g id="icons">
        <path id="zoom_x5F_out-_x5B__x23_1460_x5D_" class="st0" d="M204.7,284.5h245.6c22.6,0,40.9,17.1,40.9,38.2s-18.3,38.2-40.9,38.2h-245.6c-22.6,0-40.9-17.1-40.9-38.2s18.3-38.2,40.9-38.2h0ZM788,715.8c16,14.9,16,39.1,0,54h0c-16,14.9-41.9,14.9-57.9,0l-166.7-150.9,57.9-54,166.7,150.9h0ZM327.5,553.7c-135.4,0-245.6-102.8-245.6-229.1s110.2-229.1,245.6-229.1,245.6,102.8,245.6,229.1-110.2,229.1-245.6,229.1h0ZM327.5,19C146.6,19,0,155.8,0,324.6s146.6,305.5,327.5,305.5,327.5-136.8,327.5-305.5S508.3,19,327.5,19h0Z"/>
      </g>
    </g>
  </g>
</svg>