<?xml version="1.0" encoding="UTF-8"?>
<svg id="Layer_1" xmlns="http://www.w3.org/2000/svg" version="1.1" xmlns:xlink="http://www.w3.org/1999/xlink" viewBox="0 0 800 800">
  <!-- Generator: Adobe Illustrator 29.3.1, SVG Export Plug-In . SVG Version: 2.1.0 Build 151)  -->
  <defs>
    <style>
      .st0 {
        fill: #fff;
        fill-rule: evenodd;
      }
    </style>
  </defs>
  <g id="Page-1">
    <g id="Dribbble-Light-Preview">
      <g id="icons">
        <path id="zoom_x5F_in-_x5B__x23_1462_x5D_" class="st0" d="M360,284.5h80c22.1,0,40,17.1,40,38.2s-17.9,38.2-40,38.2h-80v76.4c0,21.1-17.9,38.2-40,38.2s-40-17.1-40-38.2v-76.4h-80c-22.1,0-40-17.1-40-38.2s17.9-38.2,40-38.2h80v-76.4c0-21.1,17.9-38.2,40-38.2s40,17.1,40,38.2v76.4ZM788.3,769.8h0c-15.6,14.9-41,14.9-56.6,0l-158-150.9,56.6-54,158,150.9c15.6,14.9,15.6,39.1,0,54h0ZM320,553.7c-132.3,0-240-102.8-240-229.1s107.7-229.1,240-229.1,240,102.8,240,229.1-107.7,229.1-240,229.1h0ZM320,19C143.3,19,0,155.8,0,324.6s143.3,305.5,320,305.5,320-136.8,320-305.5S496.7,19,320,19h0Z"/>
      </g>
    </g>
  </g>
</svg>